<?xml version="1.0" encoding="UTF-8"?>
<svg id="Layer_1" xmlns="http://www.w3.org/2000/svg" version="1.1" xmlns:xlink="http://www.w3.org/1999/xlink" viewBox="0 0 878 380">
  <!-- Generator: Adobe Illustrator 29.0.1, SVG Export Plug-In . SVG Version: 2.1.0 Build 192)  -->
  <defs>
    <style>
      .st0 {
        fill: url(#linear-gradient);
        opacity: .1;
      }

      .st0, .st1 {
        isolation: isolate;
      }

      .st1 {
        opacity: .2;
      }

      .st1, .st2, .st3, .st4, .st5, .st6 {
        fill: none;
      }

      .st1, .st3, .st4 {
        stroke-width: 2px;
      }

      .st1, .st3, .st5 {
        stroke: #3751ff;
      }

      .st7 {
        mask: url(#mask-1);
      }

      .st8, .st9 {
        fill: #fff;
      }

      .st10 {
        mask: url(#mask);
      }

      .st9, .st11 {
        fill-rule: evenodd;
      }

      .st12 {
        fill: #c4c4c4;
      }

      .st3, .st4 {
        stroke-linejoin: round;
      }

      .st4 {
        stroke: #dfe0eb;
      }

      .st13 {
        fill: #dfe0eb;
      }

      .st14 {
        fill: #252733;
      }

      .st5 {
        stroke-width: 4px;
      }

      .st15 {
        clip-path: url(#clippath);
      }

      .st6 {
        stroke: #ebedf0;
      }

      .st16 {
        fill: #9fa2b4;
      }
    </style>
    <clipPath id="clippath">
      <rect class="st2" x=".6" y="363.5" width="907.4" height="16.5"/>
    </clipPath>
    <mask id="mask" x="-15" y="19" width="810.4" height="381.5" maskUnits="userSpaceOnUse">
      <g id="mask0_584_115">
        <rect class="st12" x="-2.3" y="19" width="744.1" height="336"/>
      </g>
    </mask>
    <linearGradient id="linear-gradient" x1="-2.8" y1="146.6" x2="741.9" y2="146" gradientTransform="translate(0 382) scale(1 -1)" gradientUnits="userSpaceOnUse">
      <stop offset="0" stop-color="#3751ff"/>
      <stop offset="1" stop-color="#3751ff" stop-opacity="0"/>
    </linearGradient>
    <mask id="mask-1" x="491.5" y="84.3" width="66" height="38" maskUnits="userSpaceOnUse">
      <g id="path-46-outside-1_584_115">
        <rect class="st8" x="491.5" y="84.3" width="66" height="38"/>
        <path class="st11" d="M496.5,85.3h56c2.2,0,4,1.8,4,4v22c0,2.2-1.8,4-4,4h-21l-6.7,5.8c-.1.1-.4.1-.5,0l-6.7-5.8h-21c-2.2,0-4-1.8-4-4v-22c0-2.2,1.8-4,4-4Z"/>
      </g>
    </mask>
  </defs>
  <rect class="st2" x="-245" width="1123" height="380"/>
  <path class="st6" d="M.6,355h877.4"/>
  <path class="st6" d="M.6,299h877.4"/>
  <path class="st6" d="M.6,243h877.4"/>
  <path class="st6" d="M.6,187h877.4"/>
  <path class="st6" d="M.6,131h877.4"/>
  <path class="st6" d="M.6,75h877.4"/>
  <path class="st6" d="M.6,19h877.4"/>
  <path class="st6" d="M606,134l1,221"/>
  <g class="st15">
    <g>
      <path class="st16" d="M4.4,376.3c-1,0-1.8-.4-2.4-1.2-.5-.8-.8-1.9-.8-3.4s.3-2.7.8-3.4c.5-.8,1.3-1.2,2.4-1.2s1.8.4,2.4,1.2c.5.8.8,1.9.8,3.4s-.3,2.7-.8,3.4c-.5.8-1.3,1.2-2.3,1.2ZM4.4,375.4c.7,0,1.2-.3,1.6-.9.3-.6.5-1.6.5-2.8s-.2-2.2-.5-2.8c-.3-.6-.9-.9-1.6-.9s-1.3.3-1.6.9c-.3.6-.5,1.5-.5,2.8s.2,2.2.5,2.8c.3.6.9.9,1.6.9Z"/>
      <path class="st16" d="M37.1,375.7v-7.9l.6.3-2.4,1.6v-1l2.3-1.5h.6v8.6h-1.1ZM35.2,376.2v-.9h5v.9h-5Z"/>
      <path class="st16" d="M67.5,376.2v-.8l3.2-3.5c.4-.5.7-.9.9-1.3.2-.4.3-.8.3-1.1s-.1-.9-.4-1.1c-.3-.3-.7-.4-1.2-.4s-.9,0-1.3.3c-.4.2-.8.4-1.3.8l-.4-.8c.4-.3.8-.6,1.3-.8.5-.2,1.1-.3,1.6-.3s1,0,1.4.3c.4.2.7.5.9.8.2.4.3.8.3,1.3s-.1,1-.4,1.5c-.2.5-.6,1-1.2,1.6l-3,3.3v-.5c0,0,4.9,0,4.9,0v.9h-5.8Z"/>
      <path class="st16" d="M103.1,376.3c-.6,0-1.1,0-1.7-.3-.5-.2-1-.5-1.4-.8l.4-.8c.4.3.8.6,1.3.8.4.2.9.3,1.4.3s1.1-.1,1.5-.4c.3-.3.5-.7.5-1.3s-.2-1-.5-1.2c-.3-.3-.9-.4-1.6-.4h-1v-.9h.8c.7,0,1.2-.1,1.5-.4s.5-.7.5-1.3-.1-.9-.4-1.1c-.3-.3-.7-.4-1.2-.4s-.9,0-1.3.3c-.4.2-.8.4-1.3.8l-.4-.8c.4-.3.8-.6,1.3-.8.5-.2,1.1-.3,1.6-.3s1,0,1.4.3c.4.2.7.5.9.8.2.3.3.8.3,1.2s-.1,1-.4,1.4c-.3.4-.7.7-1.2.8h0c.6,0,1.1.3,1.4.6.3.4.5.9.5,1.5s-.3,1.4-.8,1.9c-.5.4-1.3.7-2.2.7Z"/>
      <path class="st16" d="M137.2,376.2v-7.7h.3l-3.8,5.4v-.5h5.8v.9h-6.6v-.8l4.3-6.3h.8v9h-1Z"/>
      <path class="st16" d="M169.3,376.3c-.5,0-1.1,0-1.6-.3-.5-.2-1-.5-1.3-.8l.4-.8c.4.3.8.6,1.3.8.4.2.9.3,1.3.3.6,0,1.1-.2,1.5-.5.4-.4.5-.9.5-1.5s0-.7-.2-1c-.2-.3-.4-.5-.7-.7-.3-.2-.6-.3-1-.3s-.8,0-1.2.3c-.3.2-.6.4-.9.8h-.7v-5.3h5.4v.9h-4.4v3.6h-.3c.2-.4.6-.7.9-.9.4-.2.8-.3,1.3-.3s1.1.1,1.5.4c.4.2.7.6,1,1,.2.4.3.9.3,1.5s-.1,1.1-.4,1.5c-.2.4-.6.8-1.1,1s-1,.4-1.6.4Z"/>
      <path class="st16" d="M202.4,376.3c-1.1,0-1.9-.4-2.5-1.1-.6-.8-.9-1.8-.9-3.3s.1-1.9.4-2.6c.3-.7.7-1.3,1.2-1.7.5-.4,1.1-.6,1.9-.6s1,0,1.5.3c.5.2.9.5,1.3.8l-.4.8c-.4-.4-.8-.6-1.2-.8-.4-.2-.8-.3-1.2-.3-.8,0-1.4.3-1.8,1-.4.7-.6,1.7-.6,2.9v1.1l-.2-.3c0-.4.2-.8.5-1.1.2-.3.5-.6.9-.7.4-.2.8-.3,1.2-.3s1,.1,1.5.4c.4.2.8.6,1,1,.2.4.4.9.4,1.5s-.1,1.1-.4,1.5c-.2.4-.6.8-1,1-.4.2-.9.4-1.5.4ZM202.3,375.4c.6,0,1-.2,1.4-.5.4-.4.5-.9.5-1.5s-.2-1.1-.5-1.4c-.4-.4-.8-.6-1.4-.6s-.7,0-1,.3c-.3.2-.5.4-.7.7-.2.3-.3.6-.3,1s0,.8.3,1.1c.2.3.4.5.7.7s.7.3,1.1.3Z"/>
      <path class="st16" d="M233.8,376.2h-1.1l4.4-8.6v.4c0,0-5,0-5,0v-.9h6v.8l-4.2,8.3Z"/>
      <path class="st16" d="M268,376.3c-.7,0-1.2,0-1.7-.3-.5-.2-.9-.5-1.1-.9-.3-.4-.4-.8-.4-1.3s.2-1.1.6-1.6c.4-.4,1-.7,1.7-.8v.2c-.7-.1-1.2-.4-1.6-.8-.4-.4-.5-.9-.5-1.4s.1-.9.4-1.3c.3-.4.6-.6,1.1-.8.5-.2,1-.3,1.6-.3s1.1,0,1.6.3c.5.2.8.5,1.1.8.3.4.4.8.4,1.3s-.2,1-.5,1.4c-.4.4-.9.6-1.5.8v-.2c.7.1,1.2.4,1.6.8.4.4.6.9.6,1.5s-.1,1-.4,1.3c-.3.4-.6.7-1.1.9-.5.2-1.1.3-1.7.3ZM268,375.4c.7,0,1.3-.1,1.6-.4.4-.3.6-.7.6-1.3s-.2-.9-.6-1.2c-.4-.3-.9-.5-1.6-.5-.6,0-1.2.2-1.6.5-.4.3-.6.7-.6,1.2s.2,1,.6,1.3c.4.3.9.4,1.6.4ZM268,371.3c.6,0,1.1-.2,1.4-.5.4-.3.6-.7.6-1.2s-.2-.9-.5-1.2c-.3-.3-.8-.4-1.5-.4s-1.1.1-1.5.4c-.3.3-.5.7-.5,1.2s.2.9.5,1.2c.4.3.9.5,1.4.5Z"/>
      <path class="st16" d="M300.7,367.1c1.1,0,1.9.4,2.5,1.1.6.8.9,1.8.9,3.2s-.1,1.9-.4,2.6c-.3.7-.7,1.3-1.2,1.6-.5.4-1.1.6-1.9.6s-1,0-1.5-.3c-.5-.2-.9-.5-1.3-.8l.4-.8c.4.4.8.6,1.2.8.4.2.8.2,1.2.2.8,0,1.4-.3,1.8-1,.4-.7.6-1.7.6-2.9v-1.1l.2.3c0,.4-.2.8-.5,1.1-.2.3-.6.6-.9.7-.4.2-.8.3-1.2.3s-1-.1-1.5-.4c-.4-.2-.8-.6-1-1s-.4-.9-.4-1.5.1-1.1.4-1.5c.3-.4.6-.8,1-1,.4-.3.9-.4,1.5-.4ZM300.7,367.9c-.6,0-1.1.2-1.4.6-.3.4-.5.8-.5,1.5s.2,1.1.5,1.5c.4.4.8.5,1.4.5s.7,0,1-.3c.3-.2.5-.4.7-.7.2-.3.3-.7.3-1s0-.8-.3-1.1c-.2-.3-.4-.5-.7-.7-.3-.2-.7-.3-1.1-.3Z"/>
      <path class="st16" d="M334.9,375.7v-7.9l.6.3-2.4,1.6v-1l2.3-1.5h.6v8.6h-1.1ZM332.9,376.2v-.9h5v.9h-5ZM342.8,376.3c-1,0-1.8-.4-2.4-1.2-.5-.8-.8-1.9-.8-3.4s.3-2.7.8-3.4c.5-.8,1.3-1.2,2.4-1.2s1.8.4,2.4,1.2c.5.8.8,1.9.8,3.4s-.3,2.7-.8,3.4c-.5.8-1.3,1.2-2.3,1.2ZM342.8,375.4c.7,0,1.2-.3,1.6-.9.3-.6.5-1.6.5-2.8s-.2-2.2-.5-2.8c-.3-.6-.9-.9-1.6-.9s-1.3.3-1.6.9c-.3.6-.5,1.5-.5,2.8s.2,2.2.5,2.8c.3.6.9.9,1.6.9Z"/>
      <path class="st16" d="M378,375.7v-7.9l.6.3-2.4,1.6v-1l2.3-1.5h.6v8.6h-1.1ZM376,376.2v-.9h5v.9h-5ZM385.7,375.7v-7.9l.6.3-2.4,1.6v-1l2.3-1.5h.6v8.6h-1.1ZM383.7,376.2v-.9h5v.9h-5Z"/>
      <path class="st16" d="M421.1,375.7v-7.9l.6.3-2.4,1.6v-1l2.3-1.5h.6v8.6h-1.1ZM419.1,376.2v-.9h5v.9h-5ZM426.3,376.2v-.8l3.2-3.5c.4-.5.7-.9.9-1.3.2-.4.3-.8.3-1.1s-.1-.9-.4-1.1c-.3-.3-.7-.4-1.2-.4s-.9,0-1.3.3c-.4.2-.8.4-1.3.8l-.4-.8c.4-.3.8-.6,1.3-.8s1.1-.3,1.6-.3,1,0,1.4.3c.4.2.7.5.9.8s.3.8.3,1.3-.1,1-.4,1.5c-.2.5-.6,1-1.2,1.6l-3,3.3v-.5c0,0,4.9,0,4.9,0v.9h-5.8Z"/>
      <path class="st16" d="M464.2,375.7v-7.9l.6.3-2.4,1.6v-1l2.3-1.5h.6v8.6h-1.1ZM462.2,376.2v-.9h5v.9h-5ZM472,376.3c-.6,0-1.1,0-1.7-.3-.5-.2-1-.5-1.4-.8l.4-.8c.4.3.8.6,1.3.8.4.2.9.3,1.4.3s1.1-.1,1.5-.4c.3-.3.5-.7.5-1.3s-.2-1-.5-1.2c-.3-.3-.9-.4-1.6-.4h-1v-.9h.8c.7,0,1.2-.1,1.5-.4s.5-.7.5-1.3-.1-.9-.4-1.1c-.3-.3-.7-.4-1.2-.4s-.9,0-1.3.3c-.4.2-.8.4-1.3.8l-.4-.8c.4-.3.8-.6,1.3-.8.5-.2,1.1-.3,1.6-.3s1,0,1.4.3c.4.2.7.5.9.8.2.3.3.8.3,1.2s-.1,1-.4,1.4c-.3.4-.7.7-1.2.8h0c.6,0,1.1.3,1.4.6s.5.9.5,1.5-.3,1.4-.8,1.9c-.5.4-1.3.7-2.2.7Z"/>
      <path class="st16" d="M507.3,375.7v-7.9l.6.3-2.4,1.6v-1l2.3-1.5h.6v8.6h-1.1ZM505.3,376.2v-.9h5v.9h-5ZM516.2,376.2v-7.7h.3l-3.8,5.4v-.5h5.8v.9h-6.6v-.8l4.3-6.3h.8v9h-1Z"/>
      <path class="st16" d="M550.4,375.7v-7.9l.6.3-2.4,1.6v-1l2.3-1.5h.6v8.6h-1.1ZM548.4,376.2v-.9h5v.9h-5ZM558.4,376.3c-.5,0-1.1,0-1.6-.3-.5-.2-1-.5-1.3-.8l.4-.8c.4.3.8.6,1.3.8.4.2.9.3,1.3.3.6,0,1.1-.2,1.5-.5.4-.4.5-.9.5-1.5s0-.7-.2-1c-.2-.3-.4-.5-.7-.7-.3-.2-.6-.3-1-.3s-.8,0-1.2.3c-.3.2-.6.4-.9.8h-.7v-5.3h5.4v.9h-4.4v3.6h-.3c.2-.4.6-.7.9-.9.4-.2.8-.3,1.3-.3s1.1.1,1.5.4c.4.2.7.6,1,1,.2.4.3.9.3,1.5s-.1,1.1-.4,1.5c-.2.4-.6.8-1.1,1-.5.2-1,.4-1.6.4Z"/>
      <path class="st16" d="M593.4,375.7v-7.9l.6.3-2.4,1.6v-1l2.3-1.5h.6v8.6h-1.1ZM591.5,376.2v-.9h5v.9h-5ZM601.7,376.3c-1.1,0-1.9-.4-2.5-1.1-.6-.8-.9-1.8-.9-3.3s.1-1.9.4-2.6c.3-.7.7-1.3,1.2-1.7.5-.4,1.1-.6,1.9-.6s1,0,1.5.3c.5.2.9.5,1.3.8l-.4.8c-.4-.4-.8-.6-1.2-.8-.4-.2-.8-.3-1.2-.3-.8,0-1.4.3-1.8,1-.4.7-.6,1.7-.6,2.9v1.1l-.2-.3c0-.4.2-.8.5-1.1.2-.3.5-.6.9-.7.4-.2.8-.3,1.2-.3s1,.1,1.5.4c.4.2.8.6,1,1,.2.4.4.9.4,1.5s-.1,1.1-.4,1.5c-.2.4-.6.8-1,1-.4.2-.9.4-1.5.4ZM601.6,375.4c.6,0,1-.2,1.4-.5.4-.4.5-.9.5-1.5s-.2-1.1-.5-1.4c-.4-.4-.8-.6-1.4-.6s-.7,0-1,.3c-.3.2-.5.4-.7.7-.2.3-.3.6-.3,1s0,.8.3,1.1c.2.3.4.5.7.7s.7.3,1.1.3Z"/>
      <path class="st16" d="M636.5,375.7v-7.9l.6.3-2.4,1.6v-1l2.3-1.5h.6v8.6h-1.1ZM634.5,376.2v-.9h5v.9h-5ZM643.2,376.2h-1.1l4.4-8.6v.4c0,0-5,0-5,0v-.9h6v.8l-4.2,8.3Z"/>
      <path class="st16" d="M679.6,375.7v-7.9l.6.3-2.4,1.6v-1l2.3-1.5h.6v8.6h-1.1ZM677.6,376.2v-.9h5v.9h-5ZM687.5,376.3c-.7,0-1.2,0-1.7-.3-.5-.2-.9-.5-1.1-.9-.3-.4-.4-.8-.4-1.3s.2-1.1.6-1.6,1-.7,1.7-.8v.2c-.7-.1-1.2-.4-1.6-.8-.4-.4-.5-.9-.5-1.4s.1-.9.4-1.3c.3-.4.6-.6,1.1-.8.5-.2,1-.3,1.6-.3s1.1,0,1.6.3c.5.2.8.5,1.1.8.3.4.4.8.4,1.3s-.2,1-.5,1.4c-.4.4-.9.6-1.5.8v-.2c.7.1,1.2.4,1.6.8.4.4.6.9.6,1.5s-.1,1-.4,1.3c-.3.4-.6.7-1.1.9-.5.2-1.1.3-1.7.3ZM687.5,375.4c.7,0,1.3-.1,1.6-.4.4-.3.6-.7.6-1.3s-.2-.9-.6-1.2c-.4-.3-.9-.5-1.6-.5-.6,0-1.2.2-1.6.5-.4.3-.6.7-.6,1.2s.2,1,.6,1.3c.4.3.9.4,1.6.4ZM687.5,371.3c.6,0,1.1-.2,1.4-.5.4-.3.6-.7.6-1.2s-.2-.9-.5-1.2c-.3-.3-.8-.4-1.5-.4s-1.1.1-1.5.4c-.3.3-.5.7-.5,1.2s.2.9.5,1.2c.4.3.9.5,1.4.5Z"/>
      <path class="st16" d="M722.7,375.7v-7.9l.6.3-2.4,1.6v-1l2.3-1.5h.6v8.6h-1.1ZM720.7,376.2v-.9h5v.9h-5ZM730.4,367.1c1.1,0,1.9.4,2.5,1.1.6.8.9,1.8.9,3.2s-.1,1.9-.4,2.6c-.3.7-.7,1.3-1.2,1.6-.5.4-1.1.6-1.9.6s-1,0-1.5-.3c-.5-.2-.9-.5-1.3-.8l.4-.8c.4.4.8.6,1.2.8.4.2.8.2,1.2.2.8,0,1.4-.3,1.8-1,.4-.7.6-1.7.6-2.9v-1.1l.2.3c0,.4-.2.8-.5,1.1-.2.3-.6.6-.9.7-.4.2-.8.3-1.2.3s-1-.1-1.5-.4c-.4-.2-.8-.6-1-1s-.4-.9-.4-1.5.1-1.1.4-1.5c.3-.4.6-.8,1-1,.4-.3.9-.4,1.5-.4ZM730.4,367.9c-.6,0-1.1.2-1.4.6-.3.4-.5.8-.5,1.5s.2,1.1.5,1.5c.4.4.8.5,1.4.5s.7,0,1-.3c.3-.2.5-.4.7-.7.2-.3.3-.7.3-1s0-.8-.3-1.1c-.2-.3-.4-.5-.7-.7s-.7-.3-1.1-.3Z"/>
      <path class="st16" d="M763.2,376.2v-.8l3.2-3.5c.4-.5.7-.9.9-1.3.2-.4.3-.8.3-1.1s-.1-.9-.4-1.1c-.3-.3-.7-.4-1.2-.4s-.9,0-1.3.3c-.4.2-.8.4-1.3.8l-.4-.8c.4-.3.8-.6,1.3-.8s1.1-.3,1.6-.3,1,0,1.4.3c.4.2.7.5.9.8.2.4.3.8.3,1.3s-.1,1-.4,1.5c-.2.5-.6,1-1.2,1.6l-3,3.3v-.5c0,0,4.9,0,4.9,0v.9h-5.8ZM773.7,376.3c-1,0-1.8-.4-2.4-1.2-.5-.8-.8-1.9-.8-3.4s.3-2.7.8-3.4c.5-.8,1.3-1.2,2.4-1.2s1.8.4,2.4,1.2c.5.8.8,1.9.8,3.4s-.3,2.7-.8,3.4c-.5.8-1.3,1.2-2.3,1.2ZM773.7,375.4c.7,0,1.2-.3,1.6-.9.3-.6.5-1.6.5-2.8s-.2-2.2-.5-2.8c-.3-.6-.9-.9-1.6-.9s-1.3.3-1.6.9c-.3.6-.5,1.5-.5,2.8s.2,2.2.5,2.8c.3.6.9.9,1.6.9Z"/>
      <path class="st16" d="M806.3,376.2v-.8l3.2-3.5c.4-.5.7-.9.9-1.3.2-.4.3-.8.3-1.1s-.1-.9-.4-1.1c-.3-.3-.7-.4-1.2-.4s-.9,0-1.3.3c-.4.2-.8.4-1.3.8l-.4-.8c.4-.3.8-.6,1.3-.8s1.1-.3,1.6-.3,1,0,1.4.3c.4.2.7.5.9.8.2.4.3.8.3,1.3s-.1,1-.4,1.5c-.2.5-.6,1-1.2,1.6l-3,3.3v-.5c0,0,4.9,0,4.9,0v.9h-5.8ZM816.6,375.7v-7.9l.6.3-2.4,1.6v-1l2.3-1.5h.6v8.6h-1.1ZM814.6,376.2v-.9h5v.9h-5Z"/>
      <path class="st16" d="M849.4,376.2v-.8l3.2-3.5c.4-.5.7-.9.9-1.3.2-.4.3-.8.3-1.1s-.1-.9-.4-1.1c-.3-.3-.7-.4-1.2-.4s-.9,0-1.3.3c-.4.2-.8.4-1.3.8l-.4-.8c.4-.3.8-.6,1.3-.8s1.1-.3,1.6-.3,1,0,1.4.3c.4.2.7.5.9.8.2.4.3.8.3,1.3s-.1,1-.4,1.5c-.2.5-.6,1-1.2,1.6l-3,3.3v-.5c0,0,4.9,0,4.9,0v.9h-5.8ZM857.2,376.2v-.8l3.2-3.5c.4-.5.7-.9.9-1.3.2-.4.3-.8.3-1.1s-.1-.9-.4-1.1c-.3-.3-.7-.4-1.2-.4s-.9,0-1.3.3c-.4.2-.8.4-1.3.8l-.4-.8c.4-.3.8-.6,1.3-.8s1.1-.3,1.6-.3,1,0,1.4.3c.4.2.7.5.9.8.2.4.3.8.3,1.3s-.1,1-.4,1.5c-.2.5-.6,1-1.2,1.6l-3,3.3v-.5c0,0,4.9,0,4.9,0v.9h-5.8Z"/>
    </g>
  </g>
  <path class="st16" d="M875,346.1c-.8,0-1.4-.3-1.9-.9-.4-.6-.6-1.5-.6-2.7s.2-2.1.6-2.7c.4-.6,1-.9,1.9-.9s1.4.3,1.9.9c.4.6.6,1.5.6,2.7s-.2,2.1-.6,2.7c-.4.6-1,.9-1.8.9ZM875,345.4c.6,0,1-.2,1.2-.7.3-.5.4-1.2.4-2.2s-.1-1.8-.4-2.2c-.3-.5-.7-.7-1.2-.7s-1,.2-1.3.7c-.3.5-.4,1.2-.4,2.2s.1,1.8.4,2.2c.3.5.7.7,1.3.7Z"/>
  <path class="st16" d="M868.8,289.6v-6.3l.5.2-1.9,1.2v-.8l1.8-1.2h.5v6.8h-.8ZM867.2,290v-.7h4v.7h-4ZM875,290.1c-.8,0-1.4-.3-1.9-.9-.4-.6-.6-1.5-.6-2.7s.2-2.1.6-2.7c.4-.6,1-.9,1.9-.9s1.4.3,1.9.9c.4.6.6,1.5.6,2.7s-.2,2.1-.6,2.7c-.4.6-1,.9-1.8.9ZM875,289.4c.6,0,1-.2,1.2-.7.3-.5.4-1.2.4-2.2s-.1-1.8-.4-2.2c-.3-.5-.7-.7-1.2-.7s-1,.2-1.3.7c-.3.5-.4,1.2-.4,2.2s.1,1.8.4,2.2c.3.5.7.7,1.3.7Z"/>
  <path class="st16" d="M866.7,234v-.6l2.5-2.8c.3-.4.6-.7.7-1,.2-.3.2-.6.2-.9s-.1-.7-.3-.9c-.2-.2-.6-.3-1-.3s-.7,0-1,.2c-.3.1-.7.3-1,.6l-.3-.6c.3-.3.6-.5,1.1-.6.4-.2.9-.2,1.3-.2s.8,0,1.1.2c.3.1.6.4.7.6.2.3.3.6.3,1s0,.8-.3,1.2c-.2.4-.5.8-.9,1.3l-2.4,2.6v-.4c0,0,3.9,0,3.9,0v.7h-4.6ZM875,234.1c-.8,0-1.4-.3-1.9-.9-.4-.6-.6-1.5-.6-2.7s.2-2.1.6-2.7c.4-.6,1-.9,1.9-.9s1.4.3,1.9.9c.4.6.6,1.5.6,2.7s-.2,2.1-.6,2.7c-.4.6-1,.9-1.8.9ZM875,233.4c.6,0,1-.2,1.2-.7.3-.5.4-1.2.4-2.2s-.1-1.8-.4-2.2c-.3-.5-.7-.7-1.2-.7s-1,.2-1.3.7c-.3.5-.4,1.2-.4,2.2s.1,1.8.4,2.2c.3.5.7.7,1.3.7Z"/>
  <path class="st16" d="M868.8,178.1c-.5,0-.9,0-1.3-.2-.4-.2-.8-.4-1.1-.6l.3-.6c.3.3.7.5,1,.6.3.1.7.2,1.1.2s.9-.1,1.2-.3c.3-.2.4-.6.4-1s-.1-.8-.4-1c-.3-.2-.7-.3-1.2-.3h-.8v-.7h.7c.5,0,.9-.1,1.2-.3.3-.2.4-.6.4-1s-.1-.7-.3-.9c-.2-.2-.6-.3-1-.3s-.7,0-1,.2c-.3.1-.7.3-1,.6l-.3-.6c.3-.3.6-.5,1.1-.6.4-.2.9-.2,1.3-.2s.8,0,1.1.2c.3.1.6.4.7.6.2.3.3.6.3,1s-.1.8-.3,1.1c-.2.3-.5.5-.9.6h0c.5,0,.8.2,1.1.5.3.3.4.7.4,1.2s-.2,1.1-.6,1.5c-.4.4-1,.5-1.7.5ZM875,178.1c-.8,0-1.4-.3-1.9-.9-.4-.6-.6-1.5-.6-2.7s.2-2.1.6-2.7c.4-.6,1-.9,1.9-.9s1.4.3,1.9.9c.4.6.6,1.5.6,2.7s-.2,2.1-.6,2.7c-.4.6-1,.9-1.8.9ZM875,177.4c.6,0,1-.2,1.2-.7.3-.5.4-1.2.4-2.2s-.1-1.8-.4-2.2c-.3-.5-.7-.7-1.2-.7s-1,.2-1.3.7c-.3.5-.4,1.2-.4,2.2s.1,1.8.4,2.2c.3.5.7.7,1.3.7Z"/>
  <path class="st16" d="M869.7,122v-6.1h.2l-3,4.3v-.4h4.6v.7h-5.2v-.6l3.4-5h.7v7.1h-.8ZM875,122.1c-.8,0-1.4-.3-1.9-.9-.4-.6-.6-1.5-.6-2.7s.2-2.1.6-2.7c.4-.6,1-.9,1.9-.9s1.4.3,1.9.9c.4.6.6,1.5.6,2.7s-.2,2.1-.6,2.7c-.4.6-1,.9-1.8.9ZM875,121.4c.6,0,1-.2,1.2-.7.3-.5.4-1.2.4-2.2s-.1-1.8-.4-2.2c-.3-.5-.7-.7-1.2-.7s-1,.2-1.3.7c-.3.5-.4,1.2-.4,2.2s.1,1.8.4,2.2c.3.5.7.7,1.3.7Z"/>
  <path class="st16" d="M869,66.1c-.4,0-.9,0-1.3-.2-.4-.2-.8-.4-1.1-.6l.3-.6c.3.3.7.5,1,.6.3.1.7.2,1,.2s.9-.1,1.2-.4c.3-.3.4-.7.4-1.2s0-.6-.2-.8c-.1-.2-.3-.4-.5-.6-.2-.1-.5-.2-.8-.2s-.6,0-.9.2c-.3.1-.5.3-.7.6h-.6v-4.2h4.3v.7h-3.5v2.9h-.3c.2-.3.4-.5.7-.7.3-.2.7-.2,1-.2s.8,0,1.2.3c.3.2.6.5.8.8s.3.7.3,1.2,0,.8-.3,1.2c-.2.3-.5.6-.8.8-.4.2-.8.3-1.3.3ZM875,66.1c-.8,0-1.4-.3-1.9-.9-.4-.6-.6-1.5-.6-2.7s.2-2.1.6-2.7c.4-.6,1-.9,1.9-.9s1.4.3,1.9.9c.4.6.6,1.5.6,2.7s-.2,2.1-.6,2.7c-.4.6-1,.9-1.8.9ZM875,65.4c.6,0,1-.2,1.2-.7.3-.5.4-1.2.4-2.2s-.1-1.8-.4-2.2c-.3-.5-.7-.7-1.2-.7s-1,.2-1.3.7c-.3.5-.4,1.2-.4,2.2s.1,1.8.4,2.2c.3.5.7.7,1.3.7Z"/>
  <path class="st16" d="M869.1,10.1c-.9,0-1.5-.3-2-.9-.5-.6-.7-1.5-.7-2.6s.1-1.5.3-2.1c.2-.6.5-1,.9-1.3.4-.3.9-.5,1.5-.5s.8,0,1.2.2c.4.1.7.4,1,.7l-.3.6c-.3-.3-.7-.5-1-.6-.3-.1-.6-.2-.9-.2-.6,0-1.1.3-1.4.8-.3.5-.5,1.3-.5,2.3v.9-.3c0-.3,0-.6.2-.9.2-.3.4-.4.7-.6.3-.1.6-.2,1-.2s.8,0,1.2.3c.3.2.6.4.8.8.2.3.3.7.3,1.2s0,.8-.3,1.2c-.2.3-.5.6-.8.8-.3.2-.7.3-1.2.3ZM869.1,9.4c.5,0,.8-.1,1.1-.4.3-.3.4-.7.4-1.2s-.1-.9-.4-1.1c-.3-.3-.7-.4-1.1-.4s-.6,0-.8.2c-.2.1-.4.3-.6.6-.1.2-.2.5-.2.8s0,.6.2.8c.1.2.3.4.6.5.2.1.5.2.8.2ZM875,10.1c-.8,0-1.4-.3-1.9-.9-.4-.6-.6-1.5-.6-2.7s.2-2.1.6-2.7c.4-.6,1-.9,1.9-.9s1.4.3,1.9.9c.4.6.6,1.5.6,2.7s-.2,2.1-.6,2.7c-.4.6-1,.9-1.8.9ZM875,9.4c.6,0,1-.2,1.2-.7.3-.5.4-1.2.4-2.2s-.1-1.8-.4-2.2c-.3-.5-.7-.7-1.2-.7s-1,.2-1.3.7c-.3.5-.4,1.2-.4,2.2s.1,1.8.4,2.2c.3.5.7.7,1.3.7Z"/>
  <g class="st10">
    <g>
      <path class="st0" d="M119.8,188.9c-60.6-1.7-118.2,76.3-133.8,108.8v102.8h781.4V144c-72.3-2.5-95.2-58.9-150.6-58.9s-105.5,81.6-133.7,124.5c-23.2,38.2-52.7,46.4-64.6,45.7-55.3,1.7-97.3-83.7-111.4-126.6-12.5-48.2-26.5-58.1-33.4-58.1-11.6,0-29,14.1-46.8,62.3-17.8,48.2-46.1,61.6-57.9,62.3-16.6,1-36.4-6.2-49-6.2Z"/>
      <path class="st4" d="M-14.1,173c98.8-37.5,99.4,53.4,167.2,53.4s48.7-54.8,127-63.6c78.3-8.8,127.6,98.2,191.1,98.2s93.1-143,115.3-143,9.9,72.5,64.7,72.5,89.1-47.8,144.2-49.5"/>
      <path class="st3" d="M-14.1,297.7c15.5-32.5,72.9-110.5,133.2-108.8,12.6,0,32.3,7.2,48.8,6.2,11.8-.7,39.9-14.1,57.7-62.3,17.7-48.2,35.1-62.3,46.6-62.3,6.9,0,20.9,10,33.3,58.1,14,42.9,55.9,128.3,110.9,126.6,11.8.7,41.3-7.5,64.3-45.7,28.1-42.9,77.9-124.5,133.1-124.5s77.9,56.4,149.9,58.9"/>
    </g>
  </g>
  <circle class="st1" cx="524.5" cy="146.3" r="13"/>
  <g>
    <circle class="st8" cx="524.5" cy="146.3" r="7"/>
    <circle class="st5" cx="524.5" cy="146.3" r="5"/>
  </g>
  <g>
    <path class="st9" d="M496.5,85.3h56c2.2,0,4,1.8,4,4v22c0,2.2-1.8,4-4,4h-21l-6.7,5.8c-.1.1-.4.1-.5,0l-6.7-5.8h-21c-2.2,0-4-1.8-4-4v-22c0-2.2,1.8-4,4-4Z"/>
    <g class="st7">
      <path class="st13" d="M552.5,115.3v.5-.5ZM531.5,115.3v-.5h-.3c0,.1.3.5.3.5ZM524.8,121.1l-.3-.4h0l.3.4ZM524.2,121.1l.3-.4h0l-.3.4ZM517.5,115.3l.3-.4h-.1c0-.1-.2-.1-.2-.1v.5ZM496.5,115.3v.5-.5ZM552.5,84.8h-56v1h56v-1ZM557,89.3c0-2.5-2-4.5-4.5-4.5v1c1.9,0,3.5,1.6,3.5,3.5h1ZM557,111.3v-22h-1v22h1ZM552.5,115.8c2.5,0,4.5-2,4.5-4.5h-1c0,1.9-1.6,3.5-3.5,3.5v1ZM531.5,115.8h21v-1h-21v1ZM531.2,115l-6.7,5.8.7.8,6.7-5.8-.7-.8ZM524.4,120.7s0,0,.1,0l-.7.8c.3.3.8.3,1.2,0l-.7-.8ZM524.6,120.7l-6.7-5.8-.7.8,6.7,5.8.7-.8ZM496.5,115.8h21v-1h-21v1ZM492,111.3c0,2.5,2,4.5,4.5,4.5v-1c-1.9,0-3.5-1.6-3.5-3.5h-1ZM492,89.3v22h1v-22h-1ZM496.5,84.8c-2.5,0-4.5,2-4.5,4.5h1c0-1.9,1.6-3.5,3.5-3.5v-1Z"/>
    </g>
  </g>
  <path class="st14" d="M521.6,100.2c.6.2,1,.5,1.3.9.3.4.5.9.5,1.6s-.3,1.6-.9,2.1c-.6.5-1.4.7-2.5.7s-1.3-.1-1.9-.3c-.6-.2-1.1-.5-1.5-.9l.5-1.1c.9.7,1.8,1.1,2.8,1.1s2-.6,2-1.7-.2-1-.5-1.2c-.4-.3-.9-.4-1.6-.4h-1.2v-1.2h1c.7,0,1.2-.1,1.6-.4.4-.3.5-.7.5-1.3s-.2-.9-.5-1.2c-.3-.3-.7-.4-1.3-.4-.9,0-1.9.4-2.8,1.1l-.5-1.1c.4-.4.9-.7,1.5-.9.6-.2,1.2-.3,1.9-.3.9,0,1.7.2,2.2.7.6.5.8,1.1.8,1.9s-.1,1.1-.4,1.5c-.3.4-.7.7-1.1.9ZM530.3,100.2c.6.2,1.1.5,1.5.9.4.4.5.9.5,1.6,0,.9-.3,1.5-1,2-.7.5-1.5.7-2.6.7s-2-.2-2.7-.7c-.7-.5-1-1.2-1-2s.2-1.1.5-1.6c.4-.4.9-.7,1.5-.9-.6-.2-1-.5-1.4-.9-.3-.4-.5-.9-.5-1.4s.1-1,.4-1.4c.3-.4.7-.7,1.2-.9.5-.2,1.1-.3,1.8-.3s1.3.1,1.8.3c.5.2.9.5,1.2.9.3.4.4.9.4,1.4s-.2,1-.5,1.4c-.3.4-.8.7-1.3.9ZM526.7,98c0,.5.2.9.5,1.2.4.3.9.5,1.5.6.6,0,1.1-.3,1.5-.6.4-.3.5-.7.5-1.2s-.2-.9-.5-1.2c-.4-.3-.8-.4-1.5-.4s-1.1.1-1.5.4c-.4.3-.5.7-.5,1.2ZM528.7,104.3c.7,0,1.3-.1,1.7-.4.4-.3.6-.7.6-1.3s-.2-.9-.6-1.2c-.4-.3-.9-.5-1.6-.6-.7,0-1.2.3-1.7.6-.4.3-.6.7-.6,1.2s.2,1,.6,1.3c.4.3.9.4,1.7.4Z"/>
</svg>